Coordinates
version=1
nRows=4
nColumns=138
inDegrees=yes

Units are S.I. units (second, meters, Newtons, ...)
If the header above contains a line with 'inDegrees', this indicates whether rotational values are in degrees (yes) or radians (no).

endheader
time	pelvis_tilt	pelvis_list	pelvis_rotation	pelvis_tx	pelvis_ty	pelvis_tz	L5_S1_FE	L5_S1_LB	L5_S1_AR	L4_L5_FE	L4_L5_LB	L4_L5_AR	T12_L1_FE	T12_L1_LB	T12_L1_AR	T11_T12_FE	T11_T12_LB	T11_T12_AR	T10_T11_FE	T10_T11_LB	T10_T11_AR	T9_T10_FE	T9_T10_LB	T9_T10_AR	T8_T9_FE	T8_T9_LB	T8_T9_AR	T1_T2_FE	T1_T2_LB	T1_T2_AR	T1_head_neck_FE	T1_head_neck_LB	T1_head_neck_AR	hip_flexion_r	hip_adduction_r	hip_rotation_r	knee_angle_r	knee_angle_y_r	knee_angle_x_r	ankle_angle_r	subtalar_angle_r	mtp_angle_r	hip_flexion_l	hip_adduction_l	hip_rotation_l	knee_angle_l	knee_angle_y_l	knee_angle_x_l	ankle_angle_l	subtalar_angle_l	mtp_angle_l	skull_z	skull_y	skull_x	sternoclavicular_r2	sternoclavicular_r3	unrotscap_r3	unrotscap_r2	acromioclavicular_r2	acromioclavicular_r3	acromioclavicular_r1	unrothum_r1	unrothum_r3	unrothum_r2	elv_angle	shoulder_elv	shoulder1_r2	shoulder_rot	elbow_flexion	elbow_x	elbow_y	pro_sup	deviation	flexion	thumb_abd	thumb_flex	TCP2M_lateral	TCP2M_flex	TCP2M2_flex	MCP2_lateral	MCP2_flex	PIP_flex	DIP_flex	MCP2M_lateral	MCP2M_flex	MPIP_flex	MDIP_flex	RCP2M_lateral	RCP2M_flex	RPIP_flex	RDIP_flex	LCP2M_lateral	LCP2M_flex	LPIP_flex	LDIP_flex	sternoclavicular_r2_l	sternoclavicular_r3_l	unrotscap_r3_l	unrotscap_r2_l	acromioclavicular_r2_l	acromioclavicular_r3_l	acromioclavicular_r1_l	unrothum_r1_l	unrothum_r3_l	unrothum_r2_l	elv_angle_l	shoulder_elv_l	shoulder1_r2_l	shoulder_rot_l	elbow_flexion_l	elbow_x_l	elbow_y_l	pro_sup_l	deviation_l	flexion_l	thumb_l_abd	thumb_l_flex	TCP2M_l_lateral	TCP2M_l_flex	TCP2M2_l_flex	MCP2_l_lateral	MCP2_l_flex	PIP_l_flex	DIP_l_flex	MCP2M_l_lateral	MCP2M_l_flex	MPIP_l_flex	MDIP_l_flex	RCP2M_l_lateral	RCP2M_l_flex	RPIP_l_flex	RDIP_l_flex	LCP2M_l_lateral	LCP2M_l_flex	LPIP_l_flex	LDIP_l_flex	ribs_bending
      0.00000000	    -47.84258873	     93.80754860	    -44.15461594	      0.22544274	     -0.09945348	      0.91894188	     -5.99522752	     -1.82173692	     -0.92042817	      2.16353856	     -1.59644597	     -0.36888655	      0.73883697	     -0.46980609	      0.13818232	      0.23348234	     -0.21146818	      0.18323797	     -0.02358443	     -0.08424792	      0.06739767	      0.80999578	      0.05611514	      0.09464856	      0.22392580	      0.20027775	      0.06836642	      1.42096877	      0.66475927	      0.57690984	    -17.30304604	     -1.10188296	     -2.31302146	     12.15096921	      0.51006339	    -12.96624165	    -19.67357070	      0.72753678	      2.38442182	     13.32016724	     -4.34068747	     -7.09615946	     19.11036949	     -1.45463199	     -8.82182927	    -28.38681196	      1.72657539	      3.25256833	     11.38255728	     -3.34190794	     -7.34165204	      7.38802620	     -4.16951004	      3.27572329	    -11.24250274	     -4.87737312	     -3.57624748	      8.44345135	     33.66742657	     13.81660522	      6.21046896	     -6.21046896	    -13.81660522	      1.70962715	    -25.33162321	     34.89021665	     25.33162321	    -10.29822061	     41.31393390	      6.59148766	      0.00000000	     -2.79220898	     -4.18059248	      5.94664889	     -6.95517799	     12.62827011	      0.39232400	    -16.72972378	      3.09275785	      4.69830172	     27.31116534	     28.96911595	      8.48604617	      3.53555585	     17.97639520	     43.91078291	     11.25659039	     12.55966718	     20.04511068	     45.38487498	     22.53042626	     -8.01502413	      8.47581853	     40.31388882	     20.50134153	    -12.18272399	     -5.20112176	     -3.29322375	      7.77523777	     31.79571155	     12.72316098	      5.71897330	     -5.71897330	    -12.72316098	      1.57432749	    -19.55933707	     32.12900970	     -0.00869930	     -1.70207719	     24.15442375	      6.48764287	      0.00000000	     -2.35618398	     -7.32104116	      8.02219196	     -8.26119492	      9.29836931	      2.06927456	    -13.13242625	      9.17531840	      6.74833081	     27.89758393	     32.35537908	     17.51499302	      6.47748864	     21.68049845	     39.10997519	     19.92415555	     18.73230461	     20.63612623	     48.59017232	     20.64200151	     -8.29350051	      3.18966787	     46.16665770	     25.54281212	      2.31945405
      0.00830000	    -47.62886683	     93.86281457	    -44.25669584	      0.22546308	     -0.09918357	      0.91867069	     -6.41245191	     -1.92732789	     -0.83929600	      2.39336228	     -1.54031702	     -0.32520159	      0.75331902	     -0.43539821	      0.12667866	      0.24542832	     -0.20808684	      0.16320637	     -0.02529220	     -0.11646793	      0.03224532	      0.96959204	      0.02978960	      0.02570839	      0.31189712	      0.16146817	      0.00712856	      1.31693002	      0.65966101	      0.52387751	    -17.24527548	     -1.06213447	     -2.30463599	     12.21215255	      0.41829967	    -13.04862132	    -19.74979638	      0.76761831	      2.48349941	     13.31759817	     -4.39301630	     -7.01064464	     19.69164412	     -1.59327396	     -8.72445302	    -29.39643118	      1.89708888	      3.47150498	     11.72754725	     -3.33663983	     -7.29325564	      7.37805375	     -4.10697437	      3.31335891	    -11.28649162	     -4.80704008	     -3.56343187	      8.41319393	     33.04051732	     13.76709289	      6.18821351	     -6.18821351	    -13.76709289	      1.70350063	    -24.73941130	     34.76518624	     24.73941130	     -9.06278499	     41.18022584	      6.61210280	      0.00000000	     -2.82874098	     -4.26947580	      5.78641401	     -6.86297715	     12.73054376	      0.43488932	    -16.67826640	      3.08852399	      4.67866234	     27.42497924	     29.01250313	      8.49022621	      3.50243938	     18.01498952	     43.91769228	     11.24844352	     12.48815116	     20.02325361	     45.42464906	     22.52325593	     -8.10435177	      8.39880942	     40.32793821	     20.43012762	    -12.28993009	     -4.89866132	     -3.26089252	      7.69890437	     30.96455450	     12.59825134	      5.66282727	     -5.66282727	    -12.59825134	      1.55887153	    -18.76345806	     31.81358311	      0.46733226	     -1.28768182	     23.96278562	      6.35696031	      0.00000000	     -2.86312239	     -7.25866505	      7.87748687	     -8.16185388	      9.34963428	      2.11724202	    -13.09496962	      9.16255258	      6.73962773	     28.00259003	     32.38370309	     17.51561876	      6.45626142	     21.73797250	     39.13748735	     19.92203445	     18.68724597	     20.65259957	     48.62589716	     20.60722612	     -8.35983203	      3.15945244	     46.17082273	     25.46344655	      2.31945405
      0.01670000	    -47.50993204	     93.97201072	    -44.33489552	      0.22524792	     -0.09874204	      0.91836729	     -6.30249549	     -1.98748937	     -0.85312536	      2.23641273	     -1.58839904	     -0.31090127	      0.67036892	     -0.41927112	      0.13419554	      0.24424988	     -0.18340590	      0.17075643	     -0.02098368	     -0.07863962	      0.03979474	      1.06824143	      0.06293854	      0.04051247	      0.39708880	      0.18487771	      0.01682187	      1.27993471	      0.54371489	      0.49996259	    -17.23453129	     -1.09204286	     -2.36472225	     12.41575442	      0.32581346	    -12.97549355	    -19.95338551	      1.10910814	      2.55265228	     13.39695710	     -4.84774435	     -7.06864722	     20.29609074	     -1.72816512	     -8.77807594	    -30.37738453	      2.31842885	      3.71260382	     11.83602955	     -3.60239115	     -7.34524312	      7.34301555	     -4.12384857	      3.45374699	    -10.98075059	     -4.70766617	     -3.52768188	      8.32878890	     32.29157001	     13.62897509	      6.12613051	     -6.12613051	    -13.62897509	      1.68641033	    -24.31252840	     34.41640591	     24.31252840	     -8.07420270	     40.93361543	      6.36859049	      0.00000000	     -2.47815805	     -4.13857716	      5.73034063	     -6.83733057	     12.74862824	      0.42486595	    -16.60722692	      3.05818086	      4.65007390	     27.52020795	     29.01857912	      8.46326223	      3.47585510	     18.05005173	     43.88338869	     11.20417473	     12.38049210	     19.99347820	     45.50689231	     22.49994905	     -8.28585844	      8.32422546	     40.43599649	     20.30312554	    -11.79254906	     -4.74733327	     -3.23324154	      7.63362094	     30.13705657	     12.49142353	      5.61480891	     -5.61480891	    -12.49142353	      1.54565296	    -18.50552846	     31.54381747	      0.74424345	     -1.04917804	     24.02524324	      6.25432062	      0.00000000	     -2.80082298	     -7.26340670	      7.77955436	     -8.05414987	      9.37191818	      2.14826069	    -13.01317585	      9.13496970	      6.70161824	     28.17677212	     32.38227208	     17.48678355	      6.41227256	     21.80452792	     39.16417989	     19.90382966	     18.58967298	     20.68085813	     48.72243728	     20.53442106	     -8.54320494	      3.12209514	     46.24307826	     25.31595359	      2.31945405
      0.02500000	    -47.37856102	     93.96721469	    -44.36179304	      0.22521581	     -0.09829761	      0.91819606	     -6.31349396	     -1.96589724	     -0.83957657	      2.05153421	     -1.55669125	     -0.32383856	      0.67639026	     -0.42712971	      0.12061628	      0.28272364	     -0.19569634	      0.15886236	      0.04584098	     -0.09444536	      0.06963748	      1.01763067	      0.07837349	      0.05804318	      0.43413994	      0.20765914	      0.04163984	      1.27805299	      0.52872745	      0.47465547	    -17.09542539	     -1.14559705	     -2.29522312	     12.50570940	      0.30511870	    -12.88819391	    -20.12296442	      0.95989994	      2.65090482	     13.46079524	     -4.86379874	     -7.14244713	     20.85267713	     -1.91710404	     -8.71343155	    -31.45422328	      2.36423855	      3.93229655	     12.34479525	     -3.38354555	     -7.36932977	      7.33501315	     -4.20757178	      3.55895815	    -10.94804462	     -4.76462014	     -3.53333579	      8.34213768	     31.65529867	     13.65081862	      6.13594902	     -6.13594902	    -13.65081862	      1.68911319	    -24.00671570	     34.47156603	     24.00671570	     -7.27673637	     40.78204903	      6.47707063	      0.00000000	     -2.10386668	     -4.15289251	      5.62283498	     -6.81930237	     12.79005857	      0.40210009	    -16.53846983	      3.03668780	      4.64148356	     27.56333837	     28.99692527	      8.42882098	      3.46268477	     18.07519031	     43.85243542	     11.16449598	     12.33155621	     19.94689130	     45.56434013	     22.47307471	     -8.38775110	      8.22984191	     40.52270810	     20.19647912	    -11.73781259	     -4.69888912	     -3.22571470	      7.61585021	     29.82202304	     12.46234406	      5.60173789	     -5.60173789	    -12.46234406	      1.54205475	    -18.28605550	     31.47038489	      0.95534786	     -0.86769952	     24.03182501	      6.25596243	      0.00000000	     -2.76336822	     -7.23134393	      7.65042833	     -7.99403138	      9.38224585	      2.13511713	    -12.95472330	      9.10769284	      6.72019114	     28.27456422	     32.33755013	     17.44189294	      6.42837073	     21.85665770	     39.17982153	     19.88729995	     18.55603236	     20.68514476	     48.79843880	     20.46945620	     -8.65171703	      3.06283386	     46.30316624	     25.19741215	      2.31945405
